<?xml version="1.0" encoding="UTF-8"?>
<!DOCTYPE svg PUBLIC "-//W3C//DTD SVG 1.1//EN" "http://www.w3.org/Graphics/SVG/1.1/DTD/svg11.dtd">
<svg xmlns="http://www.w3.org/2000/svg" version="1.1" width="400px" height="400px" xmlns:xlink="http://www.w3.org/1999/xlink">
<g><path fill="#303439" d="M 316.5,68.5 C 315.167,68.5 313.833,68.5 312.5,68.5C 312.5,69.5 312.5,70.5 312.5,71.5C 310.564,66.1911 308.73,60.8577 307,55.5C 311.628,58.7517 314.794,63.085 316.5,68.5 Z"/></g>
<g><path fill="#a5a760" d="M 331.5,114.5 C 333.985,121.057 336.485,127.724 339,134.5C 340.789,136.229 342.956,136.896 345.5,136.5C 345.433,135.041 345.766,133.708 346.5,132.5C 348.23,141.034 346.564,149.034 341.5,156.5C 337.063,157.583 333.063,156.583 329.5,153.5C 326.877,155.875 327.211,158.041 330.5,160C 332.025,161.009 333.692,161.509 335.5,161.5C 319.897,171.623 302.897,179.123 284.5,184C 263.175,187.502 242.842,184.502 223.5,175C 217.682,171.346 212.682,166.846 208.5,161.5C 207.293,154.884 207.293,148.218 208.5,141.5C 209.856,136.078 211.523,130.745 213.5,125.5C 213.302,127.575 213.135,129.575 213,131.5C 215.583,128.003 217.916,124.336 220,120.5C 221.307,118.808 222.807,117.475 224.5,116.5C 222.417,121.586 224.083,123.42 229.5,122C 232.167,119.667 232.167,117.333 229.5,115C 227.735,114.36 226.068,114.527 224.5,115.5C 225.419,112.911 227.086,110.911 229.5,109.5C 229.821,111.048 230.821,111.715 232.5,111.5C 232.715,109.821 232.048,108.821 230.5,108.5C 235.872,102.799 241.872,97.7994 248.5,93.5C 248.833,93.8333 249.167,94.1667 249.5,94.5C 248.018,96.4829 246.351,98.3163 244.5,100C 250.615,97.4589 256.948,95.1256 263.5,93C 280.425,89.3057 296.425,91.639 311.5,100C 318.756,104.118 325.423,108.951 331.5,114.5 Z"/></g>
<g><path fill="#1a2229" d="M 310.5,72.5 C 310.263,73.791 310.596,74.791 311.5,75.5C 312.167,75.5 312.5,75.1667 312.5,74.5C 312.5,73.8333 312.5,73.1667 312.5,72.5C 312.5,72.1667 312.5,71.8333 312.5,71.5C 312.5,70.5 312.5,69.5 312.5,68.5C 313.833,68.5 315.167,68.5 316.5,68.5C 317.632,71.6284 318.465,74.9618 319,78.5C 334.024,88.5287 343.024,102.529 346,120.5C 353.058,127.409 355.391,135.742 353,145.5C 344.59,172.242 326.756,189.075 299.5,196C 291.601,197.819 283.601,198.652 275.5,198.5C 275.866,203.296 276.866,207.963 278.5,212.5C 284.482,213.776 290.482,214.942 296.5,216C 300.253,217.588 302.253,220.421 302.5,224.5C 300.657,234.433 294.657,239.766 284.5,240.5C 280.636,239.972 276.803,239.305 273,238.5C 271.229,239.347 270.063,240.68 269.5,242.5C 269.489,240.983 268.823,239.816 267.5,239C 268.505,237.493 269.838,236.327 271.5,235.5C 269.824,234.272 269.491,232.939 270.5,231.5C 276.706,233.349 283.039,233.849 289.5,233C 291.324,232.34 292.657,231.173 293.5,229.5C 294.993,228.688 295.66,227.355 295.5,225.5C 294.916,222.2 292.916,220.866 289.5,221.5C 280.303,220.762 271.636,218.428 263.5,214.5C 266.383,215.31 269.217,215.31 272,214.5C 276.298,211.614 276.632,208.281 273,204.5C 272.667,206.5 272.333,208.5 272,210.5C 271.023,211.774 270.189,211.774 269.5,210.5C 270.859,203.037 268.192,197.204 261.5,193C 261.833,192.667 262.167,192.333 262.5,192C 279.738,192.681 296.404,190.014 312.5,184C 322.507,179.156 330.84,172.322 337.5,163.5C 337.145,162.478 336.478,161.811 335.5,161.5C 333.692,161.509 332.025,161.009 330.5,160C 327.211,158.041 326.877,155.875 329.5,153.5C 333.063,156.583 337.063,157.583 341.5,156.5C 346.564,149.034 348.23,141.034 346.5,132.5C 345.695,129.183 343.861,126.517 341,124.5C 334.886,92.2216 315.386,76.2216 282.5,76.5C 266.296,76.5659 251.963,81.5659 239.5,91.5C 227.002,99.7935 218.336,111.127 213.5,125.5C 211.523,130.745 209.856,136.078 208.5,141.5C 208.595,137.775 208.762,134.109 209,130.5C 207.091,130.327 205.257,129.993 203.5,129.5C 206.78,124.274 209.613,118.607 212,112.5C 224.775,90.01 243.942,76.1767 269.5,71C 278.152,69.4442 286.819,69.1108 295.5,70C 293.461,67.6255 291.128,65.6255 288.5,64C 272.3,58.9446 272.633,56.9446 289.5,58C 293.127,58.5637 296.293,60.0637 299,62.5C 299.667,61.8333 299.667,61.1667 299,60.5C 290.527,53.9608 291.361,53.1275 301.5,58C 306.824,61.4709 309.824,66.3042 310.5,72.5 Z"/></g>
<g><path fill="#f5e8aa" d="M 346.5,132.5 C 345.766,133.708 345.433,135.041 345.5,136.5C 342.956,136.896 340.789,136.229 339,134.5C 336.485,127.724 333.985,121.057 331.5,114.5C 326.626,99.1297 316.292,89.2964 300.5,85C 280.004,80.7308 260.67,83.8974 242.5,94.5C 241.145,93.8118 240.145,92.8118 239.5,91.5C 251.963,81.5659 266.296,76.5659 282.5,76.5C 315.386,76.2216 334.886,92.2216 341,124.5C 343.861,126.517 345.695,129.183 346.5,132.5 Z"/></g>
<g><path fill="#c7c279" d="M 331.5,114.5 C 325.423,108.951 318.756,104.118 311.5,100C 296.425,91.639 280.425,89.3057 263.5,93C 256.948,95.1256 250.615,97.4589 244.5,100C 246.351,98.3163 248.018,96.4829 249.5,94.5C 249.167,94.1667 248.833,93.8333 248.5,93.5C 241.872,97.7994 235.872,102.799 230.5,108.5C 229.833,108.5 229.5,108.833 229.5,109.5C 227.086,110.911 225.419,112.911 224.5,115.5C 224.5,115.833 224.5,116.167 224.5,116.5C 222.807,117.475 221.307,118.808 220,120.5C 217.916,124.336 215.583,128.003 213,131.5C 213.135,129.575 213.302,127.575 213.5,125.5C 218.336,111.127 227.002,99.7935 239.5,91.5C 240.145,92.8118 241.145,93.8118 242.5,94.5C 260.67,83.8974 280.004,80.7308 300.5,85C 316.292,89.2964 326.626,99.1297 331.5,114.5 Z"/></g>
<g><path fill="#4a6737" d="M 230.5,108.5 C 232.048,108.821 232.715,109.821 232.5,111.5C 230.821,111.715 229.821,111.048 229.5,109.5C 229.5,108.833 229.833,108.5 230.5,108.5 Z"/></g>
<g><path fill="#151814" d="M 318.5,99.5 C 321.275,99.8338 321.941,101.167 320.5,103.5C 318.889,102.68 318.222,101.346 318.5,99.5 Z"/></g>
<g><path fill="#4d663f" d="M 251.5,91.5 C 252.5,91.5 253.5,91.5 254.5,91.5C 254.5,92.5 254.5,93.5 254.5,94.5C 251.433,94.8795 250.433,93.8795 251.5,91.5 Z"/></g>
<g><path fill="#aaa9a9" d="M 310.5,72.5 C 311.167,72.5 311.833,72.5 312.5,72.5C 312.5,73.1667 312.5,73.8333 312.5,74.5C 311.833,74.5 311.5,74.8333 311.5,75.5C 310.596,74.791 310.263,73.791 310.5,72.5 Z"/></g>
<g><path fill="#4d6a3e" d="M 234.5,116.5 C 235.5,116.5 236.5,116.5 237.5,116.5C 237.778,118.346 237.111,119.68 235.5,120.5C 234.571,119.311 234.238,117.978 234.5,116.5 Z"/></g>
<g><path fill="#396543" d="M 224.5,116.5 C 224.5,116.167 224.5,115.833 224.5,115.5C 226.068,114.527 227.735,114.36 229.5,115C 232.167,117.333 232.167,119.667 229.5,122C 224.083,123.42 222.417,121.586 224.5,116.5 Z"/></g>
<g><path fill="#1a201f" d="M 314.5,120.5 C 313.448,120.351 312.448,120.517 311.5,121C 312.774,121.977 312.774,122.811 311.5,123.5C 309.492,121.073 306.826,120.073 303.5,120.5C 297.735,121.557 292.069,122.891 286.5,124.5C 285.227,123.923 285.227,123.257 286.5,122.5C 290.198,120.651 293.864,118.818 297.5,117C 303.794,115.685 309.461,116.852 314.5,120.5 Z"/></g>
<g><path fill="#969c67" d="M 311.5,123.5 C 305.561,121.537 300.227,122.537 295.5,126.5C 295.53,125.503 295.03,124.836 294,124.5C 291.347,125.716 288.847,125.716 286.5,124.5C 292.069,122.891 297.735,121.557 303.5,120.5C 306.826,120.073 309.492,121.073 311.5,123.5 Z"/></g>
<g><path fill="#131c24" d="M 314.5,120.5 C 318.566,124.071 320.566,128.571 320.5,134C 320.773,146.393 314.773,151.727 302.5,150C 298.202,147.541 295.202,144.041 293.5,139.5C 290.992,137.763 287.992,136.93 284.5,137C 283.313,135.981 282.313,134.814 281.5,133.5C 283.672,133.324 286.005,133.157 288.5,133C 289.416,132.722 290.082,132.222 290.5,131.5C 292.5,130.167 294.167,128.5 295.5,126.5C 300.227,122.537 305.561,121.537 311.5,123.5C 312.774,122.811 312.774,121.977 311.5,121C 312.448,120.517 313.448,120.351 314.5,120.5 Z"/></g>
<g><path fill="#ececed" d="M 305.5,126.5 C 311.488,126.664 312.821,129.164 309.5,134C 307.888,134.72 306.388,134.554 305,133.5C 304.297,131.071 304.463,128.738 305.5,126.5 Z"/></g>
<g><path fill="#131d1c" d="M 231.5,126.5 C 238.158,125.344 240.158,127.844 237.5,134C 230.254,135.274 228.254,132.774 231.5,126.5 Z"/></g>
<g><path fill="#456f58" d="M 233.5,127.5 C 234.5,127.5 235.5,127.5 236.5,127.5C 237.244,130.95 235.91,132.616 232.5,132.5C 232.366,130.708 232.699,129.042 233.5,127.5 Z"/></g>
<g><path fill="#8c9262" d="M 290.5,131.5 C 290.082,132.222 289.416,132.722 288.5,133C 286.005,133.157 283.672,133.324 281.5,133.5C 282.313,134.814 283.313,135.981 284.5,137C 287.992,136.93 290.992,137.763 293.5,139.5C 290.065,139.46 286.565,139.127 283,138.5C 280.866,136.713 280.033,134.38 280.5,131.5C 283.833,131.5 287.167,131.5 290.5,131.5 Z"/></g>
<g><path fill="#121a1b" d="M 312.5,151.5 C 316.241,150.599 318.241,151.932 318.5,155.5C 311.833,155.5 305.167,155.5 298.5,155.5C 298.5,154.5 298.5,153.5 298.5,152.5C 303.363,152.819 308.03,152.486 312.5,151.5 Z"/></g>
<g><path fill="#192522" d="M 239.5,156.5 C 246.004,156.138 247.671,158.638 244.5,164C 237.745,164.756 236.078,162.256 239.5,156.5 Z"/></g>
<g><path fill="#4b7b55" d="M 240.5,158.5 C 241.5,158.5 242.5,158.5 243.5,158.5C 243.5,159.5 243.5,160.5 243.5,161.5C 242.5,161.5 241.5,161.5 240.5,161.5C 240.5,160.5 240.5,159.5 240.5,158.5 Z"/></g>
<g><path fill="#447a56" d="M 208.5,161.5 C 212.682,166.846 217.682,171.346 223.5,175C 242.842,184.502 263.175,187.502 284.5,184C 302.897,179.123 319.897,171.623 335.5,161.5C 336.478,161.811 337.145,162.478 337.5,163.5C 330.84,172.322 322.507,179.156 312.5,184C 296.404,190.014 279.738,192.681 262.5,192C 262.167,192.333 261.833,192.667 261.5,193C 268.192,197.204 270.859,203.037 269.5,210.5C 245.732,202.246 225.565,188.579 209,169.5C 208.503,166.854 208.336,164.187 208.5,161.5 Z"/></g>
<g><path fill="#171e25" d="M 203.5,129.5 C 205.257,129.993 207.091,130.327 209,130.5C 208.762,134.109 208.595,137.775 208.5,141.5C 207.293,148.218 207.293,154.884 208.5,161.5C 208.336,164.187 208.503,166.854 209,169.5C 225.565,188.579 245.732,202.246 269.5,210.5C 270.189,211.774 271.023,211.774 272,210.5C 272.333,208.5 272.667,206.5 273,204.5C 276.632,208.281 276.298,211.614 272,214.5C 269.217,215.31 266.383,215.31 263.5,214.5C 260.406,213.787 257.406,212.787 254.5,211.5C 238.549,203.734 224.049,193.734 211,181.5C 207.615,177.783 204.615,173.783 202,169.5C 201.667,163.5 201.333,157.5 201,151.5C 197.728,153.108 194.728,155.108 192,157.5C 191.51,158.793 191.343,160.127 191.5,161.5C 191.335,165.182 191.501,168.848 192,172.5C 200.463,182.632 209.296,192.465 218.5,202C 223.051,205.434 227.718,208.601 232.5,211.5C 244.247,219.709 256.914,226.376 270.5,231.5C 269.491,232.939 269.824,234.272 271.5,235.5C 269.838,236.327 268.505,237.493 267.5,239C 268.823,239.816 269.489,240.983 269.5,242.5C 273.308,247.824 277.808,252.824 283,257.5C 297.458,275.8 299.125,295.133 288,315.5C 286.581,316.46 285.081,317.293 283.5,318C 279.781,318.388 276.114,319.055 272.5,320C 270.613,322.95 268.613,325.784 266.5,328.5C 269.965,330.117 273.632,331.451 277.5,332.5C 282.317,330.427 287.317,330.094 292.5,331.5C 292.137,332.183 291.804,332.85 291.5,333.5C 215.876,335.996 140.209,336.163 64.5,334C 61.7111,333.759 59.0444,333.092 56.5,332C 60.1309,329.757 64.1309,328.923 68.5,329.5C 72.5546,329.824 76.5546,329.491 80.5,328.5C 80.0431,327.702 79.3764,327.369 78.5,327.5C 75.8045,327.067 73.6379,325.734 72,323.5C 71.1667,320.5 70.3333,317.5 69.5,314.5C 56.3901,309.504 53.7234,301.17 61.5,289.5C 56.1912,285.197 50.8579,280.863 45.5,276.5C 39.983,269.159 40.983,262.659 48.5,257C 50.8333,255.833 53.1667,254.667 55.5,253.5C 59.6635,212.782 76.3302,178.282 105.5,150C 134.781,127.11 167.448,120.277 203.5,129.5 Z"/></g>
<g><path fill="#af8353" d="M 83.5,199.5 C 87.3022,200.32 90.6355,201.986 93.5,204.5C 93.8333,205.167 94.1667,205.833 94.5,206.5C 92.6336,205.986 90.8003,205.32 89,204.5C 87.274,205.648 87.4407,206.815 89.5,208C 88.4366,209.188 87.1033,209.688 85.5,209.5C 85.9347,214.459 85.1014,219.126 83,223.5C 81.6124,224.554 80.1124,224.72 78.5,224C 78.5281,220.972 78.5281,217.972 78.5,215C 80.1352,212.242 82.1352,209.742 84.5,207.5C 82.8327,206.334 81.166,206.334 79.5,207.5C 80.8527,204.795 82.1861,202.128 83.5,199.5 Z"/></g>
<g><path fill="#bd8f5b" d="M 254.5,211.5 C 231.92,205.46 213.754,192.793 200,173.5C 198.038,168.26 195.705,163.26 193,158.5C 192.768,159.737 192.268,160.737 191.5,161.5C 191.343,160.127 191.51,158.793 192,157.5C 194.728,155.108 197.728,153.108 201,151.5C 201.333,157.5 201.667,163.5 202,169.5C 204.615,173.783 207.615,177.783 211,181.5C 224.049,193.734 238.549,203.734 254.5,211.5 Z"/></g>
<g><path fill="#c08e57" d="M 166.5,141.5 C 172.23,145.025 177.563,149.025 182.5,153.5C 182.666,157.846 182.499,162.179 182,166.5C 181.208,168.587 180.041,170.421 178.5,172C 168.785,180.05 158.785,187.716 148.5,195C 141.956,199.773 134.956,203.773 127.5,207C 110.479,205.83 96.4791,198.663 85.5,185.5C 89.0954,183.898 92.4288,181.898 95.5,179.5C 96.5,179.5 97.5,179.5 98.5,179.5C 98.5,178.5 98.5,177.5 98.5,176.5C 102.826,184.076 109.492,187.076 118.5,185.5C 123.235,185.531 127.901,185.031 132.5,184C 147.659,177.182 160.159,167.015 170,153.5C 170.923,151.966 171.423,150.299 171.5,148.5C 170.201,145.873 168.534,143.54 166.5,141.5 Z"/></g>
<g><path fill="#956a44" d="M 98.5,176.5 C 98.5,177.5 98.5,178.5 98.5,179.5C 97.5,179.5 96.5,179.5 95.5,179.5C 95.5,177.5 96.5,176.5 98.5,176.5 Z"/></g>
<g><path fill="#deaf7d" d="M 99.5,165.5 C 99.0074,167.806 98.6741,170.139 98.5,172.5C 97.6457,173.632 97.6457,174.965 98.5,176.5C 96.5,176.5 95.5,177.5 95.5,179.5C 92.4288,181.898 89.0954,183.898 85.5,185.5C 85.5,185.167 85.5,184.833 85.5,184.5C 88.9489,177.269 93.6155,170.935 99.5,165.5 Z"/></g>
<g><path fill="#9a7741" d="M 102.5,171.5 C 104.176,172.183 104.843,173.517 104.5,175.5C 102.62,175.771 101.287,175.104 100.5,173.5C 101.167,172.833 101.833,172.167 102.5,171.5 Z"/></g>
<g><path fill="#7f6444" d="M 169.5,131.5 C 169.328,132.492 169.662,133.158 170.5,133.5C 171.167,133.833 171.833,134.167 172.5,134.5C 177.807,139.16 183.807,142.827 190.5,145.5C 194.75,144.373 198.75,142.706 202.5,140.5C 202.607,142.903 201.607,144.736 199.5,146C 195.537,148.83 191.204,150.163 186.5,150C 179.672,145.085 172.672,140.419 165.5,136C 163.963,134.89 163.297,133.39 163.5,131.5C 165.5,131.5 167.5,131.5 169.5,131.5 Z"/></g>
<g><path fill="#f3c775" d="M 159.5,137.5 C 162.331,138.079 164.664,139.412 166.5,141.5C 168.534,143.54 170.201,145.873 171.5,148.5C 171.423,150.299 170.923,151.966 170,153.5C 160.159,167.015 147.659,177.182 132.5,184C 127.901,185.031 123.235,185.531 118.5,185.5C 109.492,187.076 102.826,184.076 98.5,176.5C 97.6457,174.965 97.6457,173.632 98.5,172.5C 99.1667,172.833 99.8333,173.167 100.5,173.5C 101.287,175.104 102.62,175.771 104.5,175.5C 104.843,173.517 104.176,172.183 102.5,171.5C 107.179,165.309 112.513,159.476 118.5,154C 132.183,147.8 145.85,142.3 159.5,137.5 Z"/></g>
<g><path fill="#997641" d="M 119.5,167.5 C 120.833,167.5 122.167,167.5 123.5,167.5C 123.5,168.5 123.5,169.5 123.5,170.5C 122.167,170.5 120.833,170.5 119.5,170.5C 119.5,169.5 119.5,168.5 119.5,167.5 Z"/></g>
<g><path fill="#8e6839" d="M 150.5,164.5 C 151.5,164.5 152.5,164.5 153.5,164.5C 153.778,166.346 153.111,167.68 151.5,168.5C 150.571,167.311 150.238,165.978 150.5,164.5 Z"/></g>
<g><path fill="#856441" d="M 110.5,163.5 C 115.159,163.015 116.492,164.848 114.5,169C 109.728,169.81 108.395,167.977 110.5,163.5 Z"/></g>
<g><path fill="#856741" d="M 120.5,154.5 C 124.473,155.075 125.473,157.242 123.5,161C 118.148,161.175 117.148,159.009 120.5,154.5 Z"/></g>
<g><path fill="#916e3d" d="M 148.5,153.5 C 149.5,153.5 150.5,153.5 151.5,153.5C 151.5,154.833 151.5,156.167 151.5,157.5C 150.5,157.5 149.5,157.5 148.5,157.5C 148.5,156.167 148.5,154.833 148.5,153.5 Z"/></g>
<g><path fill="#8d6936" d="M 142.5,153.5 C 143.5,153.5 144.5,153.5 145.5,153.5C 145.5,154.5 145.5,155.5 145.5,156.5C 144.5,156.5 143.5,156.5 142.5,156.5C 142.5,155.5 142.5,154.5 142.5,153.5 Z"/></g>
<g><path fill="#f5e6a7" d="M 159.5,137.5 C 145.85,142.3 132.183,147.8 118.5,154C 112.513,159.476 107.179,165.309 102.5,171.5C 101.833,172.167 101.167,172.833 100.5,173.5C 99.8333,173.167 99.1667,172.833 98.5,172.5C 98.6741,170.139 99.0074,167.806 99.5,165.5C 113.392,149.967 130.559,139.967 151,135.5C 154.073,135.364 156.906,136.03 159.5,137.5 Z"/></g>
<g><path fill="#bd8d59" d="M 172.5,134.5 C 182.786,136.09 193.119,137.423 203.5,138.5C 203.672,139.492 203.338,140.158 202.5,140.5C 198.75,142.706 194.75,144.373 190.5,145.5C 183.807,142.827 177.807,139.16 172.5,134.5 Z"/></g>
<g><path fill="#e1b07b" d="M 170.5,133.5 C 174.97,132.514 179.637,132.181 184.5,132.5C 190.744,132.485 196.744,133.651 202.5,136C 203.252,136.671 203.586,137.504 203.5,138.5C 193.119,137.423 182.786,136.09 172.5,134.5C 171.833,134.167 171.167,133.833 170.5,133.5 Z"/></g>
<g><path fill="#af9476" d="M 169.5,131.5 C 174.695,131.179 179.695,131.513 184.5,132.5C 179.637,132.181 174.97,132.514 170.5,133.5C 169.662,133.158 169.328,132.492 169.5,131.5 Z"/></g>
<g><path fill="#806445" d="M 182.5,153.5 C 183.458,153.953 184.292,154.619 185,155.5C 185.667,161.5 185.667,167.5 185,173.5C 165.745,187.211 146.578,201.044 127.5,215C 123.955,215.571 120.622,214.904 117.5,213C 105.782,207.058 94.6151,200.225 84,192.5C 83.115,189.462 83.615,186.795 85.5,184.5C 85.5,184.833 85.5,185.167 85.5,185.5C 96.4791,198.663 110.479,205.83 127.5,207C 134.956,203.773 141.956,199.773 148.5,195C 158.785,187.716 168.785,180.05 178.5,172C 180.041,170.421 181.208,168.587 182,166.5C 182.499,162.179 182.666,157.846 182.5,153.5 Z"/></g>
<g><path fill="#f1c675" d="M 254.5,211.5 C 257.406,212.787 260.406,213.787 263.5,214.5C 271.636,218.428 280.303,220.762 289.5,221.5C 289.38,223.199 289.046,224.865 288.5,226.5C 288.453,228.038 289.12,229.038 290.5,229.5C 290.083,230.124 289.416,230.457 288.5,230.5C 271.323,225.746 254.656,219.58 238.5,212C 236.527,211.505 234.527,211.338 232.5,211.5C 227.718,208.601 223.051,205.434 218.5,202C 209.296,192.465 200.463,182.632 192,172.5C 191.501,168.848 191.335,165.182 191.5,161.5C 192.268,160.737 192.768,159.737 193,158.5C 195.705,163.26 198.038,168.26 200,173.5C 213.754,192.793 231.92,205.46 254.5,211.5 Z"/></g>
<g><path fill="#bf8d57" d="M 94.5,206.5 C 105.167,212.833 115.833,219.167 126.5,225.5C 126.325,227.621 126.659,229.621 127.5,231.5C 128.337,238.522 128.337,245.522 127.5,252.5C 105.18,260.128 86.0136,255.461 70,238.5C 73.3556,245.856 78.8556,251.356 86.5,255C 90.635,257.322 94.9683,259.155 99.5,260.5C 99.0431,261.298 98.3764,261.631 97.5,261.5C 84.3142,258.683 73.6476,252.016 65.5,241.5C 68.4472,234.743 70.9472,227.743 73,220.5C 75.0902,216.019 77.2569,211.686 79.5,207.5C 81.166,206.334 82.8327,206.334 84.5,207.5C 82.1352,209.742 80.1352,212.242 78.5,215C 78.5281,217.972 78.5281,220.972 78.5,224C 80.1124,224.72 81.6124,224.554 83,223.5C 85.1014,219.126 85.9347,214.459 85.5,209.5C 87.1033,209.688 88.4366,209.188 89.5,208C 87.4407,206.815 87.274,205.648 89,204.5C 90.8003,205.32 92.6336,205.986 94.5,206.5 Z"/></g>
<g><path fill="#7c6346" d="M 93.5,204.5 C 104.103,209.803 114.436,215.636 124.5,222C 125.823,222.816 126.489,223.983 126.5,225.5C 115.833,219.167 105.167,212.833 94.5,206.5C 94.1667,205.833 93.8333,205.167 93.5,204.5 Z"/></g>
<g><path fill="#f1e5a7" d="M 289.5,221.5 C 292.916,220.866 294.916,222.2 295.5,225.5C 295.66,227.355 294.993,228.688 293.5,229.5C 292.5,229.5 291.5,229.5 290.5,229.5C 289.12,229.038 288.453,228.038 288.5,226.5C 289.046,224.865 289.38,223.199 289.5,221.5 Z"/></g>
<g><path fill="#bc8c58" d="M 232.5,211.5 C 234.527,211.338 236.527,211.505 238.5,212C 254.656,219.58 271.323,225.746 288.5,230.5C 289.416,230.457 290.083,230.124 290.5,229.5C 291.5,229.5 292.5,229.5 293.5,229.5C 292.657,231.173 291.324,232.34 289.5,233C 283.039,233.849 276.706,233.349 270.5,231.5C 256.914,226.376 244.247,219.709 232.5,211.5 Z"/></g>
<g><path fill="#deaf7c" d="M 83.5,199.5 C 82.1861,202.128 80.8527,204.795 79.5,207.5C 77.2569,211.686 75.0902,216.019 73,220.5C 70.9472,227.743 68.4472,234.743 65.5,241.5C 64.5386,239.735 64.2053,237.735 64.5,235.5C 66.7737,223.18 70.9403,211.514 77,200.5C 78.9953,197.194 81.162,196.861 83.5,199.5 Z"/></g>
<g><path fill="#f1c676" d="M 230.5,228.5 C 234.008,229.504 237.174,231.171 240,233.5C 240.52,235.289 240.187,236.956 239,238.5C 230.962,248.26 221.796,256.76 211.5,264C 209.35,265.411 207.016,266.245 204.5,266.5C 201.927,265.121 200.427,263.121 200,260.5C 212.085,251.584 222.252,240.917 230.5,228.5 Z"/></g>
<g><path fill="#826544" d="M 184.5,179.5 C 186.527,179.338 188.527,179.505 190.5,180C 202.169,192.522 213.003,205.689 223,219.5C 224.422,222.03 224.755,224.697 224,227.5C 204.959,253.455 179.459,269.455 147.5,275.5C 146.353,275.182 145.519,274.516 145,273.5C 138.519,256.056 134.519,238.056 133,219.5C 149.06,204.576 166.227,191.242 184.5,179.5 Z"/></g>
<g><path fill="#aa8455" d="M 211.5,220.5 C 212.043,220.56 212.376,220.893 212.5,221.5C 204.231,234.959 192.898,244.459 178.5,250C 191.203,241.996 202.203,232.163 211.5,220.5 Z"/></g>
<g><path fill="#af8651" d="M 207.5,203.5 C 208.117,203.611 208.617,203.944 209,204.5C 209.667,206.833 209.667,209.167 209,211.5C 204.426,224.075 196.259,233.575 184.5,240C 179.031,243.147 173.364,245.481 167.5,247C 177.281,241.36 186.448,234.86 195,227.5C 201.538,220.758 205.705,212.758 207.5,203.5 Z"/></g>
<g><path fill="#bf8d57" d="M 189.5,182.5 C 172.396,193.753 156.563,206.753 142,221.5C 141.312,222.332 141.479,222.998 142.5,223.5C 158.413,209.237 175.413,196.57 193.5,185.5C 197.083,189.646 200.583,193.979 204,198.5C 202.922,209.323 198.589,218.657 191,226.5C 183.761,233.109 175.594,237.943 166.5,241C 178.579,233.589 188.746,224.089 197,212.5C 198.301,210.598 198.968,208.598 199,206.5C 186.283,222.903 170.45,235.07 151.5,243C 148.232,244.213 144.899,244.546 141.5,244C 139.356,237.65 137.689,231.15 136.5,224.5C 136.967,221.852 138.134,219.519 140,217.5C 150.635,207.193 162.135,198.026 174.5,190C 178.232,184.366 183.232,181.866 189.5,182.5 Z"/></g>
<g><path fill="#e3b17c" d="M 189.5,182.5 C 190.833,183.5 192.167,184.5 193.5,185.5C 175.413,196.57 158.413,209.237 142.5,223.5C 141.479,222.998 141.312,222.332 142,221.5C 156.563,206.753 172.396,193.753 189.5,182.5 Z"/></g>
<g><path fill="#bd8f5a" d="M 204.5,266.5 C 207.016,266.245 209.35,265.411 211.5,264C 221.796,256.76 230.962,248.26 239,238.5C 240.187,236.956 240.52,235.289 240,233.5C 237.174,231.171 234.008,229.504 230.5,228.5C 232.172,225.787 233.838,223.12 235.5,220.5C 242.24,223.192 248.24,226.858 253.5,231.5C 243.702,247.907 231.035,261.74 215.5,273C 211.019,272.381 207.353,270.214 204.5,266.5 Z"/></g>
<g><path fill="#2c5846" d="M 258.5,233.5 C 260.435,234.15 262.435,234.483 264.5,234.5C 262.871,243.425 258.871,251.091 252.5,257.5C 250.769,255.655 249.102,253.822 247.5,252C 251.549,246.07 255.216,239.903 258.5,233.5 Z"/></g>
<g><path fill="#846544" d="M 127.5,231.5 C 128.926,237.621 129.926,243.954 130.5,250.5C 131.251,249.624 131.751,248.624 132,247.5C 135.407,256.156 137.574,265.156 138.5,274.5C 130.682,272.353 122.682,272.019 114.5,273.5C 114.709,274.086 115.043,274.586 115.5,275C 107.142,275.881 99.4751,274.048 92.5,269.5C 93.7708,267.171 95.7708,266.005 98.5,266C 97.3774,264.956 96.0441,264.29 94.5,264C 95.5707,263.148 96.5707,262.315 97.5,261.5C 98.3764,261.631 99.0431,261.298 99.5,260.5C 94.9683,259.155 90.635,257.322 86.5,255C 78.8556,251.356 73.3556,245.856 70,238.5C 86.0136,255.461 105.18,260.128 127.5,252.5C 128.337,245.522 128.337,238.522 127.5,231.5 Z"/></g>
<g><path fill="#2d5a46" d="M 270.5,253.5 C 268.248,252.667 266.081,252.667 264,253.5C 261.133,258.099 259.966,263.099 260.5,268.5C 258.683,266.508 257.016,264.341 255.5,262C 257.405,257.015 260.405,252.848 264.5,249.5C 266.789,250.465 268.789,251.798 270.5,253.5 Z"/></g>
<g><path fill="#7c6346" d="M 126.5,225.5 C 132.059,240.848 137.059,256.515 141.5,272.5C 141.43,273.772 141.097,274.938 140.5,276C 111.719,280.731 85.8859,274.231 63,256.5C 62.1832,249.267 62.6832,242.267 64.5,235.5C 64.2053,237.735 64.5386,239.735 65.5,241.5C 73.6476,252.016 84.3142,258.683 97.5,261.5C 96.5707,262.315 95.5707,263.148 94.5,264C 96.0441,264.29 97.3774,264.956 98.5,266C 95.7708,266.005 93.7708,267.171 92.5,269.5C 99.4751,274.048 107.142,275.881 115.5,275C 115.043,274.586 114.709,274.086 114.5,273.5C 122.682,272.019 130.682,272.353 138.5,274.5C 137.574,265.156 135.407,256.156 132,247.5C 131.751,248.624 131.251,249.624 130.5,250.5C 129.926,243.954 128.926,237.621 127.5,231.5C 126.659,229.621 126.325,227.621 126.5,225.5 Z"/></g>
<g><path fill="#8a6741" d="M 79.5,239.5 C 85.0536,243.108 91.0536,245.942 97.5,248C 104.5,248.333 111.5,248.667 118.5,249C 117.377,250.044 116.044,250.71 114.5,251C 104.179,252.757 94.5119,251.091 85.5,246C 82.7063,244.465 80.7063,242.298 79.5,239.5 Z"/></g>
<g><path fill="#a98354" d="M 125.5,257.5 C 127.337,257.639 127.67,258.306 126.5,259.5C 122.81,260.194 119.143,261.028 115.5,262C 115.833,262.333 116.167,262.667 116.5,263C 112.548,263.912 108.881,263.245 105.5,261C 112.349,260.101 119.015,258.934 125.5,257.5 Z"/></g>
<g><path fill="#edd89a" d="M 61.5,263.5 C 60.5,263.5 59.5,263.5 58.5,263.5C 58.5,264.5 58.5,265.5 58.5,266.5C 55.6333,266.369 53.9666,267.703 53.5,270.5C 52.1667,270.5 50.8333,270.5 49.5,270.5C 48.4407,265 50.9407,261.666 57,260.5C 59.1829,260.522 60.6829,261.522 61.5,263.5 Z"/></g>
<g><path fill="#f2c675" d="M 201.5,269.5 C 197.299,273.951 192.299,277.451 186.5,280C 181.58,282.196 176.58,284.196 171.5,286C 169.402,286.678 167.402,286.511 165.5,285.5C 163.833,283.833 162.167,282.167 160.5,280.5C 159.115,279.698 159.282,279.031 161,278.5C 173.516,274.658 185.349,269.325 196.5,262.5C 198.58,264.573 200.246,266.907 201.5,269.5 Z"/></g>
<g><path fill="#466b47" d="M 246.5,268.5 C 247.906,268.973 248.573,269.973 248.5,271.5C 247.745,273.466 246.579,273.8 245,272.5C 244.227,270.648 244.727,269.314 246.5,268.5 Z"/></g>
<g><path fill="#3c6541" d="M 278.5,269.5 C 279.338,269.842 279.672,270.508 279.5,271.5C 279.5,272.5 279.5,273.5 279.5,274.5C 275.324,275.169 273.991,273.669 275.5,270C 276.448,269.517 277.448,269.351 278.5,269.5 Z"/></g>
<g><path fill="#f2c776" d="M 61.5,263.5 C 70.8915,270.362 81.2248,275.362 92.5,278.5C 92.2927,281.241 91.2927,283.574 89.5,285.5C 76.572,282.702 64.572,277.702 53.5,270.5C 53.9666,267.703 55.6333,266.369 58.5,266.5C 58.5,265.5 58.5,264.5 58.5,263.5C 59.5,263.5 60.5,263.5 61.5,263.5 Z"/></g>
<g><path fill="#c08e56" d="M 201.5,269.5 C 202.89,270.899 203.89,272.566 204.5,274.5C 204.586,275.496 204.252,276.329 203.5,277C 200.187,278.968 196.854,280.968 193.5,283C 186.571,286.646 179.237,288.646 171.5,289C 169.111,288.261 167.111,287.095 165.5,285.5C 167.402,286.511 169.402,286.678 171.5,286C 176.58,284.196 181.58,282.196 186.5,280C 192.299,277.451 197.299,273.951 201.5,269.5 Z"/></g>
<g><path fill="#f1e8ab" d="M 270.5,254.5 C 270.833,254.5 271.167,254.5 271.5,254.5C 280.813,262.462 286.48,272.462 288.5,284.5C 288.649,285.552 288.483,286.552 288,287.5C 287.292,286.619 286.458,285.953 285.5,285.5C 285.672,284.508 285.338,283.842 284.5,283.5C 283.352,279.213 281.685,275.213 279.5,271.5C 279.672,270.508 279.338,269.842 278.5,269.5C 274.505,265.176 271.839,260.176 270.5,254.5 Z"/></g>
<g><path fill="#3f7352" d="M 270.5,253.5 C 271.167,253.5 271.5,253.833 271.5,254.5C 271.167,254.5 270.833,254.5 270.5,254.5C 267.435,255.28 265.768,257.28 265.5,260.5C 266.113,264.877 267.946,268.543 271,271.5C 271.495,273.473 271.662,275.473 271.5,277.5C 274.2,276.484 276.866,276.484 279.5,277.5C 281.395,281.143 280.395,283.143 276.5,283.5C 276.338,285.527 276.505,287.527 277,289.5C 279.736,294.251 281.569,299.251 282.5,304.5C 283.833,304.5 285.167,304.5 286.5,304.5C 284.615,311.054 280.281,314.054 273.5,313.5C 275.209,296.655 270.875,281.655 260.5,268.5C 259.966,263.099 261.133,258.099 264,253.5C 266.081,252.667 268.248,252.667 270.5,253.5 Z"/></g>
<g><path fill="#bd8e59" d="M 49.5,270.5 C 50.8333,270.5 52.1667,270.5 53.5,270.5C 64.572,277.702 76.572,282.702 89.5,285.5C 87.9156,291.604 84.2489,293.104 78.5,290C 70.8465,286.508 63.5132,282.508 56.5,278C 53.2608,276.264 50.9274,273.764 49.5,270.5 Z"/></g>
<g><path fill="#426340" d="M 255.5,281.5 C 256.167,281.5 256.5,281.833 256.5,282.5C 256.396,284.973 255.396,285.639 253.5,284.5C 252.361,282.604 253.027,281.604 255.5,281.5 Z"/></g>
<g><path fill="#f2c775" d="M 158.5,284.5 C 158.5,285.833 158.5,287.167 158.5,288.5C 139.654,292.521 120.654,293.355 101.5,291C 99.1887,290.764 97.1887,289.931 95.5,288.5C 95.5,285.833 95.5,283.167 95.5,280.5C 115.39,284.643 135.223,284.31 155,279.5C 157.138,280.43 158.305,282.097 158.5,284.5 Z"/></g>
<g><path fill="#b08650" d="M 204.5,274.5 C 207.134,276.54 207.134,278.707 204.5,281C 196.087,286.475 187.087,290.809 177.5,294C 174.5,294.667 171.5,294.667 168.5,294C 165.162,289.813 162.496,285.313 160.5,280.5C 162.167,282.167 163.833,283.833 165.5,285.5C 167.111,287.095 169.111,288.261 171.5,289C 179.237,288.646 186.571,286.646 193.5,283C 196.854,280.968 200.187,278.968 203.5,277C 204.252,276.329 204.586,275.496 204.5,274.5 Z"/></g>
<g><path fill="#3c6642" d="M 284.5,283.5 C 285.338,283.842 285.672,284.508 285.5,285.5C 285.5,286.5 285.5,287.5 285.5,288.5C 279.329,287.838 278.995,286.171 284.5,283.5 Z"/></g>
<g><path fill="#72935e" d="M 231.5,273.5 C 227.011,281.904 228.177,289.571 235,296.5C 236.852,301.389 238.519,306.389 240,311.5C 243.5,314.246 247.5,315.579 252,315.5C 254.295,315.453 256.129,314.787 257.5,313.5C 262.815,313.503 264.815,310.836 263.5,305.5C 263.833,305.5 264.167,305.5 264.5,305.5C 264.654,307.97 265.654,309.97 267.5,311.5C 267.03,315.201 265.697,318.534 263.5,321.5C 255.861,322.525 248.195,322.691 240.5,322C 234.627,319.092 230.46,314.592 228,308.5C 225.381,301.022 223.547,293.355 222.5,285.5C 223.939,280.385 226.939,276.385 231.5,273.5 Z"/></g>
<g><path fill="#f1e7ab" d="M 246.5,261.5 C 261.743,274.658 268.743,291.324 267.5,311.5C 265.654,309.97 264.654,307.97 264.5,305.5C 264.728,301.076 263.728,297.076 261.5,293.5C 260.07,289.646 258.403,285.979 256.5,282.5C 256.5,281.833 256.167,281.5 255.5,281.5C 253.646,277.779 251.313,274.446 248.5,271.5C 248.573,269.973 247.906,268.973 246.5,268.5C 245.659,266.621 245.325,264.621 245.5,262.5C 245.5,261.833 245.833,261.5 246.5,261.5 Z"/></g>
<g><path fill="#937654" d="M 95.5,290.5 C 97.1042,291.287 97.7709,292.62 97.5,294.5C 106.041,295.724 114.375,297.391 122.5,299.5C 118.143,299.414 113.81,299.08 109.5,298.5C 105.699,297.361 101.699,296.528 97.5,296C 96.1387,294.416 95.472,292.582 95.5,290.5 Z"/></g>
<g><path fill="#bd8d57" d="M 158.5,284.5 C 159.643,287.976 159.81,291.642 159,295.5C 158.612,296.428 157.945,297.095 157,297.5C 146.911,299.146 136.744,299.813 126.5,299.5C 125.167,299.5 123.833,299.5 122.5,299.5C 114.375,297.391 106.041,295.724 97.5,294.5C 97.7709,292.62 97.1042,291.287 95.5,290.5C 95.5,289.833 95.5,289.167 95.5,288.5C 97.1887,289.931 99.1887,290.764 101.5,291C 120.654,293.355 139.654,292.521 158.5,288.5C 158.5,287.167 158.5,285.833 158.5,284.5 Z"/></g>
<g><path fill="#a68254" d="M 210.5,284.5 C 214.336,286.552 214.336,288.719 210.5,291C 206.061,293.303 201.561,295.47 197,297.5C 194.474,296.872 193.641,295.539 194.5,293.5C 200.22,290.979 205.553,287.979 210.5,284.5 Z"/></g>
<g><path fill="#72945f" d="M 270.5,254.5 C 271.839,260.176 274.505,265.176 278.5,269.5C 277.448,269.351 276.448,269.517 275.5,270C 273.991,273.669 275.324,275.169 279.5,274.5C 279.5,273.5 279.5,272.5 279.5,271.5C 281.685,275.213 283.352,279.213 284.5,283.5C 278.995,286.171 279.329,287.838 285.5,288.5C 285.5,287.5 285.5,286.5 285.5,285.5C 286.458,285.953 287.292,286.619 288,287.5C 288.483,286.552 288.649,285.552 288.5,284.5C 290.13,291.281 289.463,297.948 286.5,304.5C 285.167,304.5 283.833,304.5 282.5,304.5C 281.569,299.251 279.736,294.251 277,289.5C 276.505,287.527 276.338,285.527 276.5,283.5C 280.395,283.143 281.395,281.143 279.5,277.5C 276.866,276.484 274.2,276.484 271.5,277.5C 271.662,275.473 271.495,273.473 271,271.5C 267.946,268.543 266.113,264.877 265.5,260.5C 265.768,257.28 267.435,255.28 270.5,254.5 Z"/></g>
<g><path fill="#2e5b47" d="M 69.5,307.5 C 70.2389,307.631 70.9056,307.464 71.5,307C 69.0077,302.998 67.0077,298.831 65.5,294.5C 65.9081,293.357 66.5748,292.357 67.5,291.5C 71.3201,293.487 74.3201,296.321 76.5,300C 75.2619,302.545 73.9286,305.045 72.5,307.5C 71.3864,308.776 70.3864,308.776 69.5,307.5 Z"/></g>
<g><path fill="#336148" d="M 128.5,308.5 C 129.925,309.922 130.925,311.589 131.5,313.5C 115.405,307.481 98.7384,304.148 81.5,303.5C 82.1522,300.848 83.8189,299.181 86.5,298.5C 95.6409,301.301 104.974,303.135 114.5,304C 119.379,304.939 124.046,306.439 128.5,308.5 Z"/></g>
<g><path fill="#2d5846" d="M 201.5,315.5 C 199.008,317.4 196.342,317.733 193.5,316.5C 194.48,315.019 195.647,313.685 197,312.5C 197.667,311.833 197.667,311.167 197,310.5C 194.715,313.892 191.548,315.559 187.5,315.5C 187.482,311.871 188.816,308.871 191.5,306.5C 198.09,303.872 204.423,300.705 210.5,297C 214,296.5 215.5,298 215,301.5C 211,304.833 207,308.167 203,311.5C 202.209,312.745 201.709,314.078 201.5,315.5 Z"/></g>
<g><path fill="#497959" d="M 65.5,294.5 C 67.0077,298.831 69.0077,302.998 71.5,307C 70.9056,307.464 70.2389,307.631 69.5,307.5C 61.8856,305.093 60.5523,300.76 65.5,294.5 Z"/></g>
<g><path fill="#876e49" d="M 172.5,301.5 C 165.881,304.089 158.881,305.423 151.5,305.5C 158.276,303.646 165.276,302.312 172.5,301.5 Z"/></g>
<g><path fill="#111b25" d="M 109.5,298.5 C 113.81,299.08 118.143,299.414 122.5,299.5C 123.833,299.5 125.167,299.5 126.5,299.5C 135.064,300.089 143.731,300.922 152.5,302C 153.167,302.333 153.833,302.667 154.5,303C 153.333,303.167 152.167,303.333 151,303.5C 145.863,302.697 140.697,302.364 135.5,302.5C 135.33,303.822 135.663,304.989 136.5,306C 135.572,306.388 134.905,307.055 134.5,308C 135.943,311.106 137.276,314.273 138.5,317.5C 139.768,315.696 140.435,313.696 140.5,311.5C 146.855,311.725 153.188,311.892 159.5,312C 158.692,311.692 158.025,311.192 157.5,310.5C 162.743,309.53 167.743,308.196 172.5,306.5C 174.435,305.85 176.435,305.517 178.5,305.5C 182.799,305.69 187.132,306.024 191.5,306.5C 188.816,308.871 187.482,311.871 187.5,315.5C 191.548,315.559 194.715,313.892 197,310.5C 197.667,311.167 197.667,311.833 197,312.5C 195.647,313.685 194.48,315.019 193.5,316.5C 196.342,317.733 199.008,317.4 201.5,315.5C 203,313.816 204.667,312.149 206.5,310.5C 207.386,311.325 207.719,312.325 207.5,313.5C 207.461,314.583 207.127,315.583 206.5,316.5C 210.631,318.253 213.965,317.253 216.5,313.5C 216.833,313.833 217.167,314.167 217.5,314.5C 215.656,316.982 214.323,319.649 213.5,322.5C 214.5,322.5 215.5,322.5 216.5,322.5C 217.583,322.461 218.583,322.127 219.5,321.5C 221.561,325.338 223.228,325.005 224.5,320.5C 225.417,321.127 226.417,321.461 227.5,321.5C 230.083,326.136 234.083,328.802 239.5,329.5C 246.012,330.167 252.679,330.833 259.5,331.5C 256.633,332.774 253.633,333.607 250.5,334C 201.494,334.696 152.494,334.363 103.5,333C 106.576,332.654 109.576,331.988 112.5,331C 109.833,330.667 107.167,330.333 104.5,330C 112.344,329.829 120.011,329.329 127.5,328.5C 130.997,327.598 134.663,326.931 138.5,326.5C 138.784,324.585 138.451,322.919 137.5,321.5C 136.567,318.63 134.9,316.296 132.5,314.5C 132.5,313.833 132.167,313.5 131.5,313.5C 130.925,311.589 129.925,309.922 128.5,308.5C 127.859,307.518 127.193,306.518 126.5,305.5C 120.055,303.23 113.388,302.063 106.5,302C 107.993,300.844 107.826,300.01 106,299.5C 103.162,300.891 100.662,300.391 98.5,298C 99.1667,297.833 99.8333,297.667 100.5,297.5C 103.449,298.302 106.449,298.636 109.5,298.5 Z"/></g>
<g><path fill="#af8652" d="M 178.5,305.5 C 176.435,305.517 174.435,305.85 172.5,306.5C 161.892,308.301 151.225,309.635 140.5,310.5C 140.286,308.856 140.62,307.356 141.5,306C 144.817,305.502 148.15,305.335 151.5,305.5C 158.881,305.423 165.881,304.089 172.5,301.5C 178.803,299.62 185.136,297.953 191.5,296.5C 191.714,298.144 191.38,299.644 190.5,301C 186.265,302.211 182.265,303.711 178.5,305.5 Z"/></g>
<g><path fill="#91a161" d="M 245.5,262.5 C 245.325,264.621 245.659,266.621 246.5,268.5C 244.727,269.314 244.227,270.648 245,272.5C 246.579,273.8 247.745,273.466 248.5,271.5C 251.313,274.446 253.646,277.779 255.5,281.5C 253.027,281.604 252.361,282.604 253.5,284.5C 255.396,285.639 256.396,284.973 256.5,282.5C 258.403,285.979 260.07,289.646 261.5,293.5C 263.728,297.076 264.728,301.076 264.5,305.5C 264.167,305.5 263.833,305.5 263.5,305.5C 260.418,303.931 257.585,304.265 255,306.5C 254.167,309.478 255,311.811 257.5,313.5C 256.129,314.787 254.295,315.453 252,315.5C 247.5,315.579 243.5,314.246 240,311.5C 238.519,306.389 236.852,301.389 235,296.5C 228.177,289.571 227.011,281.904 231.5,273.5C 236.158,269.836 240.825,266.169 245.5,262.5 Z"/></g>
<g><path fill="#37613f" d="M 242.5,304.5 C 243.833,304.5 245.167,304.5 246.5,304.5C 246.5,305.833 246.5,307.167 246.5,308.5C 242.56,309.234 241.227,307.901 242.5,304.5 Z"/></g>
<g><path fill="#41653e" d="M 248.5,301.5 C 249.873,301.343 251.207,301.51 252.5,302C 253.674,304.829 252.674,305.829 249.5,305C 248.663,303.989 248.33,302.822 248.5,301.5 Z"/></g>
<g><path fill="#386444" d="M 244.5,292.5 C 249.006,291.527 251.172,293.194 251,297.5C 247.507,300.502 245.007,299.835 243.5,295.5C 243.685,294.416 244.018,293.416 244.5,292.5 Z"/></g>
<g><path fill="#395f3d" d="M 261.5,293.5 C 261.5,294.833 261.5,296.167 261.5,297.5C 260.5,297.5 259.5,297.5 258.5,297.5C 258.5,296.167 258.5,294.833 258.5,293.5C 259.5,293.5 260.5,293.5 261.5,293.5 Z"/></g>
<g><path fill="#3a6743" d="M 252.5,286.5 C 256.35,286.701 257.35,288.534 255.5,292C 251.537,292.118 250.537,290.284 252.5,286.5 Z"/></g>
<g><path fill="#3e6441" d="M 240.5,284.5 C 244.161,284.35 245.161,285.85 243.5,289C 239.707,289.487 238.707,287.987 240.5,284.5 Z"/></g>
<g><path fill="#366243" d="M 236.5,275.5 C 241.587,275.284 242.587,277.118 239.5,281C 237.866,281.494 236.199,281.66 234.5,281.5C 234.253,279.142 234.919,277.142 236.5,275.5 Z"/></g>
<g><path fill="#346141" d="M 245.5,276.5 C 248.91,276.384 250.244,278.05 249.5,281.5C 247.5,281.5 245.5,281.5 243.5,281.5C 243.392,279.486 244.058,277.82 245.5,276.5 Z"/></g>
<g><path fill="#2d5747" d="M 216.5,322.5 C 215.5,322.5 214.5,322.5 213.5,322.5C 214.323,319.649 215.656,316.982 217.5,314.5C 217.167,314.167 216.833,313.833 216.5,313.5C 213.965,317.253 210.631,318.253 206.5,316.5C 207.127,315.583 207.461,314.583 207.5,313.5C 209.934,310.829 212.267,307.996 214.5,305C 215.167,304.333 215.833,304.333 216.5,305C 218.079,308.497 219.079,312.164 219.5,316C 219.436,318.718 218.436,320.885 216.5,322.5 Z"/></g>
<g><path fill="#ebda9c" d="M 80.5,304.5 C 81.8333,304.5 83.1667,304.5 84.5,304.5C 83.8548,308.678 81.6881,312.011 78,314.5C 77.51,313.207 77.3433,311.873 77.5,310.5C 77.9925,308.181 78.9925,306.181 80.5,304.5 Z"/></g>
<g><path fill="#355f3e" d="M 263.5,305.5 C 264.815,310.836 262.815,313.503 257.5,313.5C 255,311.811 254.167,309.478 255,306.5C 257.585,304.265 260.418,303.931 263.5,305.5 Z"/></g>
<g><path fill="#709062" d="M 257.5,306.5 C 258.833,306.5 260.167,306.5 261.5,306.5C 261.5,307.833 261.5,309.167 261.5,310.5C 260.167,310.5 258.833,310.5 257.5,310.5C 257.5,309.167 257.5,307.833 257.5,306.5 Z"/></g>
<g><path fill="#e1e0ab" d="M 132.5,314.5 C 134.9,316.296 136.567,318.63 137.5,321.5C 137.565,321.938 137.399,322.272 137,322.5C 135.048,321.253 133.215,319.919 131.5,318.5C 131.167,317.833 130.833,317.167 130.5,316.5C 130.5,315.167 131.167,314.5 132.5,314.5 Z"/></g>
<g><path fill="#97a260" d="M 80.5,304.5 C 80.5,303.833 80.8333,303.5 81.5,303.5C 98.7384,304.148 115.405,307.481 131.5,313.5C 132.167,313.5 132.5,313.833 132.5,314.5C 131.167,314.5 130.5,315.167 130.5,316.5C 126.828,316.183 125.162,317.849 125.5,321.5C 122.145,321.909 119.145,321.242 116.5,319.5C 115.162,317.887 113.495,317.387 111.5,318C 110.316,319.145 110.316,320.312 111.5,321.5C 111.53,322.497 111.03,323.164 110,323.5C 106.034,324.13 102.2,325.13 98.5,326.5C 90.2706,326.482 83.1039,323.815 77,318.5C 76.1993,315.633 76.3659,312.966 77.5,310.5C 77.3433,311.873 77.51,313.207 78,314.5C 81.6881,312.011 83.8548,308.678 84.5,304.5C 83.1667,304.5 81.8333,304.5 80.5,304.5 Z"/></g>
<g><path fill="#436841" d="M 106.5,312.5 C 107.5,312.5 108.5,312.5 109.5,312.5C 109.426,316.541 108.093,317.208 105.5,314.5C 105.863,313.817 106.196,313.15 106.5,312.5 Z"/></g>
<g><path fill="#406441" d="M 116.5,312.5 C 119.5,312.167 120.833,313.5 120.5,316.5C 116.56,317.234 115.227,315.901 116.5,312.5 Z"/></g>
<g><path fill="#36603f" d="M 89.5,307.5 C 95.9889,307.156 97.9889,309.99 95.5,316C 86.2495,318.251 84.2495,315.418 89.5,307.5 Z"/></g>
<g><path fill="#6c9064" d="M 89.5,309.5 C 92.9496,308.756 94.6162,310.09 94.5,313.5C 92.8008,313.66 91.1341,313.494 89.5,313C 88.3157,311.855 88.3157,310.688 89.5,309.5 Z"/></g>
<g><path fill="#42663e" d="M 116.5,319.5 C 116.5,320.5 116.5,321.5 116.5,322.5C 114.708,322.634 113.042,322.301 111.5,321.5C 110.316,320.312 110.316,319.145 111.5,318C 113.495,317.387 115.162,317.887 116.5,319.5 Z"/></g>
<g><path fill="#38613e" d="M 130.5,316.5 C 130.833,317.167 131.167,317.833 131.5,318.5C 131.5,319.5 131.5,320.5 131.5,321.5C 129.5,321.5 127.5,321.5 125.5,321.5C 125.162,317.849 126.828,316.183 130.5,316.5 Z"/></g>
<g><path fill="#457a55" d="M 246.5,261.5 C 245.833,261.5 245.5,261.833 245.5,262.5C 240.825,266.169 236.158,269.836 231.5,273.5C 226.939,276.385 223.939,280.385 222.5,285.5C 223.547,293.355 225.381,301.022 228,308.5C 230.46,314.592 234.627,319.092 240.5,322C 248.195,322.691 255.861,322.525 263.5,321.5C 261.587,326.434 257.92,328.934 252.5,329C 248.179,329.499 243.846,329.666 239.5,329.5C 234.083,328.802 230.083,326.136 227.5,321.5C 223.476,308.893 220.143,296.059 217.5,283C 218.651,281.177 219.818,279.344 221,277.5C 228.932,271.572 236.265,264.905 243,257.5C 244.376,258.705 245.542,260.038 246.5,261.5 Z"/></g>
<g><path fill="#73925d" d="M 131.5,318.5 C 133.215,319.919 135.048,321.253 137,322.5C 137.399,322.272 137.565,321.938 137.5,321.5C 138.451,322.919 138.784,324.585 138.5,326.5C 134.663,326.931 130.997,327.598 127.5,328.5C 119.826,328.666 112.159,328.5 104.5,328C 102.292,327.809 100.292,327.309 98.5,326.5C 102.2,325.13 106.034,324.13 110,323.5C 111.03,323.164 111.53,322.497 111.5,321.5C 113.042,322.301 114.708,322.634 116.5,322.5C 116.5,321.5 116.5,320.5 116.5,319.5C 119.145,321.242 122.145,321.909 125.5,321.5C 127.5,321.5 129.5,321.5 131.5,321.5C 131.5,320.5 131.5,319.5 131.5,318.5 Z"/></g>
<g><path fill="#6b6f6f" d="M 78.5,327.5 C 79.3764,327.369 80.0431,327.702 80.5,328.5C 76.5546,329.491 72.5546,329.824 68.5,329.5C 71.8333,328.833 75.1667,328.167 78.5,327.5 Z"/></g>
<g><path fill="#363b42" d="M 266.5,328.5 C 275.848,328.668 285.181,329.168 294.5,330C 295.624,330.249 296.624,330.749 297.5,331.5C 295.977,333.283 293.977,333.949 291.5,333.5C 291.804,332.85 292.137,332.183 292.5,331.5C 287.317,330.094 282.317,330.427 277.5,332.5C 273.632,331.451 269.965,330.117 266.5,328.5 Z"/></g>
</svg>
